<svg width="515" height="515" viewBox="0 0 515 515" fill="none" xmlns="http://www.w3.org/2000/svg">
<path d="M340.191 275.797C350.808 270.598 362.892 269.201 374.713 269.11C392.944 268.97 411.64 271.922 427.425 281.046C445.965 291.761 459.494 311.312 461.555 332.627C463.617 353.941 453.532 376.342 435.429 387.782C416.64 399.655 391.568 398.773 371.627 388.958C351.685 379.143 336.473 361.467 325.801 341.97C315.129 322.474 308.56 301.047 302.063 279.792C286.863 230.065 271.662 180.338 256.462 130.611C245.294 156.474 234.125 182.337 222.957 208.2C222.582 209.068 222.161 209.991 221.352 210.482C220.329 211.103 219 210.838 217.903 210.359C213.221 208.311 210.715 202.929 210.575 197.821C210.434 192.712 212.211 187.767 213.969 182.969C228.758 142.604 243.991 102.402 259.665 62.373C282.899 137.778 306.14 213.207 326.352 289.478C332.778 313.728 339.28 338.852 354.851 358.522C370.422 378.193 397.844 390.909 421.131 381.577C437.226 375.127 448.512 358.686 449.808 341.395C450.547 331.527 448.267 321.453 443.35 312.865C433.593 295.822 414.328 285.888 394.91 282.958C375.492 280.027 355.707 283.187 336.434 286.951C334.077 286.082 333.411 282.802 334.524 280.55C335.637 278.298 337.935 276.902 340.191 275.797Z" fill="white"/>
<path d="M295.931 282.166C297.272 284.102 297.99 286.463 297.952 288.817C240.655 300.744 177.307 274.286 145.513 225.149C113.719 176.013 115.542 107.386 149.899 60.0065C184.257 12.6272 248.921 -10.4304 305.504 4.52124C334.824 12.2688 362.126 29.9785 377.927 55.8633C344.705 22.8538 290.168 13.4787 248.004 33.8637C205.841 54.2488 179.279 103.115 185.502 149.533C191.724 195.95 230.497 236.222 276.711 243.807C279.492 244.263 282.381 244.644 284.783 246.117C287.185 247.591 288.963 250.521 288.139 253.215C245.715 249.969 206.038 222.247 188.399 183.528C170.76 144.809 175.882 96.6777 201.273 62.5377C226.665 28.3976 271.288 9.64554 313.444 15.3995C273.161 1.09856 226.314 6.76938 190.606 30.2692C154.898 53.7689 131.159 94.5514 128.359 137.206C125.558 179.861 143.762 223.398 176.091 251.364C208.42 279.331 254.123 291.078 295.931 282.166Z" fill="white"/>
<path d="M409.689 181.51C398.719 222.737 368.787 257.779 331.443 278.405C330.114 279.139 328.36 278.226 327.646 276.886C326.932 275.546 326.973 273.947 327.033 272.43C356.672 257.276 382.071 232.74 395.048 202.085C377.836 226.343 351.558 244.005 322.597 250.782C321.691 250.994 320.959 250.069 320.489 249.266C319.87 248.208 319.234 247.098 319.16 245.874C319.086 244.651 319.766 243.287 320.962 243.014C345.858 237.345 368.66 222.891 384.413 202.796C400.165 182.701 408.756 157.107 408.317 131.577C408.287 129.842 408.233 128.029 408.99 126.467C415.59 143.911 414.484 163.486 409.689 181.51Z" fill="white"/>
<path d="M244.945 447.122C232.554 458.633 211.718 458.218 198.257 447.979C180.814 434.71 176.879 407.535 188.261 388.805C199.642 370.076 223.921 360.948 245.346 365.564C266.771 370.18 284.529 387.25 292.07 407.828C300.092 429.715 296.995 455.178 284.713 474.991C272.43 494.804 251.409 508.765 228.544 513.301C205.678 517.837 181.271 513.118 161.253 501.173C142.528 489.999 127.314 472.056 122.164 450.867C115.19 422.176 126.91 392.609 138.402 365.41C152.003 333.221 165.604 301.033 179.204 268.844C182.348 269.875 185.592 270.962 188.053 273.174C190.514 275.385 191.994 279.048 190.684 282.087C177.114 313.588 163.543 345.088 149.973 376.589C144.464 389.377 138.911 402.308 136.484 416.02C134.057 429.732 135.01 444.503 141.925 456.59C138.355 433.148 141.462 408.547 151.896 387.255C162.33 365.962 180.235 348.191 202.111 339.044C203.771 338.35 205.671 337.705 207.317 338.432C208.962 339.159 209.537 341.944 207.884 342.655C192.781 349.153 180.363 361.079 171.741 375.079C163.119 389.078 158.122 405.084 155.472 421.311C152.571 439.076 152.598 458.135 160.938 474.088C169.777 490.997 187.706 502.55 206.681 504.553C225.656 506.557 245.204 499.299 258.963 486.08C272.723 472.861 280.691 454.049 281.61 434.991C282.154 423.683 280.182 411.924 273.901 402.505C266.7 391.707 254.375 384.983 241.597 382.705C227.793 380.244 212.097 383.265 203.055 393.981C193.338 405.495 194.157 424.027 203.829 435.578C213.5 447.13 230.49 451.368 244.945 447.122Z" fill="white"/>
<path d="M135.052 340.013C136.377 339.516 138.248 339.265 138.865 340.538C139.112 341.049 139.045 341.648 138.973 342.211C138.557 345.447 138.06 348.878 135.959 351.375C134.631 352.953 132.785 353.997 130.94 354.919C115.173 362.799 95.7719 363.973 79.9015 356.303C64.0312 348.634 52.5883 331.662 53.2033 314.047C53.3932 308.608 54.6548 303.251 56.4005 298.097C62.6272 279.713 75.425 263.438 92.3708 253.974C112.873 242.522 139.031 241.785 160.072 252.215C162.261 253.3 164.454 254.546 165.974 256.459C167.495 258.373 168.21 261.104 167.164 263.313C166.117 265.521 162.975 266.659 161.046 265.159C148.73 255.585 131.957 252.53 116.693 255.75C101.43 258.97 87.7336 268.094 77.6837 280.025C71.5906 287.258 66.6699 295.715 64.8992 305.005C64.2637 308.34 64.0396 311.742 64.0274 315.136C64.0091 320.255 64.5033 325.5 66.6845 330.131C68.243 333.44 70.6127 336.317 73.2837 338.816C84.1214 348.955 100.461 352.81 114.688 348.584C121.753 346.485 128.152 342.603 135.052 340.013Z" fill="white"/>
<path d="M174.312 339.662C175.06 337.389 175.887 335.087 177.371 333.21C179.179 330.92 181.808 329.452 184.39 328.093C217.828 310.502 255.041 301.571 291.941 293.451C293.387 293.133 294.907 292.817 296.326 293.238C298.213 293.797 299.586 295.749 299.474 297.714C299.362 299.678 297.775 301.462 295.837 301.802C251.457 309.597 206.981 323.676 171.801 351.83C171.273 352.076 171.03 351.162 171.169 350.597C172.078 346.914 173.126 343.266 174.312 339.662Z" fill="white"/>
<path d="M244.047 263.851C228.867 262.633 214.883 255.227 202.207 246.786C195.095 242.049 188.211 236.918 182.089 230.957C164.923 214.241 154.375 191.356 150.667 167.685C146.959 144.014 149.825 119.599 156.816 96.6814C157.091 95.7789 157.443 94.7902 158.275 94.3451C159.107 93.9 160.446 94.5593 160.203 95.4711C153.58 120.327 151.948 146.756 157.603 171.85C163.258 196.944 176.472 220.613 196.281 237.023C210.846 249.089 228.774 257.051 247.492 259.766C248.866 259.965 249.051 262.124 248.013 263.047C246.976 263.97 245.431 263.963 244.047 263.851Z" fill="white"/>
<path d="M390.27 115.277C387.148 117.276 383.157 116.99 379.45 116.973C374.684 116.951 369.915 117.495 365.276 118.589C363.067 119.11 360.864 119.765 358.888 120.882C354.668 123.268 351.818 127.608 350.322 132.219C348.827 136.83 348.549 141.74 348.444 146.587C348.352 150.904 348.338 155.427 346.294 159.232C346.59 151.375 346.08 143.489 344.775 135.736C344.318 133.023 343.749 130.282 342.461 127.852C339.403 122.081 332.801 119.029 326.361 117.942C319.921 116.854 313.313 117.327 306.831 116.532C305.958 116.425 304.854 116.044 304.859 115.164C308.594 115.015 312.329 114.866 316.064 114.717C320.679 114.534 325.341 114.343 329.797 113.129C334.253 111.916 338.552 109.572 341.261 105.831C343.975 102.085 344.851 97.342 345.407 92.75C346.21 86.1217 346.497 79.431 346.265 72.7583C348.441 75.2045 348.115 78.8848 348.083 82.1582C348.047 85.9355 348.576 89.6934 349.142 93.4281C349.771 97.5745 350.501 101.856 352.823 105.349C355.383 109.199 359.643 111.662 364.085 112.948C368.526 114.234 373.195 114.462 377.813 114.682C381.965 114.88 386.118 115.079 390.27 115.277Z" fill="white"/>
<path d="M396.863 321.077C399.523 325.08 398.741 331.087 394.964 334.061C391.286 336.957 385.358 336.383 382.304 332.834C379.25 329.286 379.565 323.339 382.977 320.133C383.779 319.379 384.714 318.773 385.711 318.306C388.098 317.187 390.97 316.896 393.366 317.995C394.797 318.651 395.992 319.766 396.863 321.077Z" fill="white"/>
<path d="M312.052 80.4512C312.818 79.9075 313.875 79.9306 314.75 80.2736C315.624 80.6165 316.358 81.2352 317.073 81.8433C320.19 84.4901 323.306 87.1368 326.422 89.7835C327.178 90.4254 327.948 91.0837 328.454 91.9361C328.961 92.7884 329.165 93.8857 328.729 94.7762C328.001 96.2651 325.875 96.4806 324.353 95.8238C323.268 95.356 322.351 94.5792 321.457 93.8081C318.797 91.514 316.181 89.1691 313.611 86.7749C312.695 85.9217 311.757 85.0217 311.303 83.8549C310.85 82.688 311.032 81.1756 312.052 80.4512Z" fill="white"/>
<path d="M382.915 80.4238C382.149 79.8802 381.092 79.9033 380.218 80.2462C379.343 80.5892 378.61 81.2079 377.894 81.816C374.778 84.4627 371.661 87.1095 368.545 89.7562C367.789 90.3981 367.02 91.0563 366.513 91.9087C366.006 92.7611 365.802 93.8583 366.238 94.7489C366.967 96.2377 369.093 96.4533 370.615 95.7965C371.699 95.3286 372.616 94.5519 373.51 93.7807C376.17 91.4867 378.787 89.1417 381.357 86.7475C382.273 85.8944 383.211 84.9943 383.664 83.8275C384.117 82.6607 383.936 81.1483 382.915 80.4238Z" fill="white"/>
<path d="M311.983 145.725C312.749 146.268 313.806 146.245 314.68 145.902C315.555 145.559 316.288 144.941 317.004 144.332C320.12 141.686 323.237 139.039 326.353 136.392C327.109 135.75 327.879 135.092 328.385 134.24C328.892 133.387 329.096 132.29 328.66 131.4C327.931 129.911 325.805 129.695 324.283 130.352C323.199 130.82 322.282 131.597 321.388 132.368C318.728 134.662 316.112 137.007 313.541 139.401C312.625 140.254 311.687 141.154 311.234 142.321C310.781 143.488 310.962 145 311.983 145.725Z" fill="white"/>
<path d="M382.846 145.752C382.08 146.296 381.023 146.273 380.149 145.93C379.274 145.587 378.541 144.968 377.825 144.36C374.708 141.713 371.592 139.066 368.476 136.42C367.72 135.778 366.95 135.119 366.444 134.267C365.937 133.415 365.733 132.317 366.169 131.427C366.898 129.938 369.024 129.723 370.546 130.379C371.63 130.847 372.547 131.624 373.441 132.395C376.101 134.689 378.717 137.034 381.287 139.428C382.203 140.281 383.142 141.181 383.595 142.348C384.048 143.515 383.867 145.027 382.846 145.752Z" fill="white"/>
<path d="M360.682 448.718C358.865 451.254 355.028 452.066 352.339 450.483C349.651 448.9 348.499 445.151 349.834 442.331C351.17 439.512 354.801 438.029 357.728 439.106C359.213 439.653 360.318 440.92 361.152 442.265C361.852 443.393 362.421 444.771 361.979 446.023C361.646 446.966 361.265 447.905 360.682 448.718Z" fill="white"/>
<path d="M87.8818 217.317C87.4689 216.784 87.119 216.199 86.8751 215.57C86.4884 214.574 86.3756 213.486 86.4393 212.419C86.6111 209.544 88.1379 206.743 90.5601 205.185C92.9823 203.627 96.2605 203.423 98.7797 204.818C99.442 205.185 100.048 205.652 100.58 206.19C102.736 208.37 103.556 211.776 102.628 214.698C101.7 217.62 99.065 219.928 96.0465 220.465C93.0281 221.001 89.7592 219.74 87.8818 217.317Z" fill="white"/>
<path d="M192.756 134.332C190.743 130.89 191.159 126.194 193.747 123.161C196.39 120.063 201.104 118.942 204.858 120.518C208.612 122.094 211.113 126.244 210.753 130.299C210.393 134.355 207.201 137.999 203.228 138.889C199.254 139.78 194.812 137.846 192.756 134.332Z" fill="white"/>
<path d="M423.325 236.235C421.503 237.261 419.051 236.543 417.659 234.983C416.573 233.767 416.023 231.969 416.628 230.456C416.873 229.845 417.288 229.311 417.782 228.876C419.782 227.117 423.148 227.219 425.037 229.097C426.058 230.111 426.64 231.669 426.175 233.03C425.917 233.789 425.371 234.412 424.815 234.99C424.364 235.458 423.891 235.916 423.325 236.235Z" fill="white"/>
<path d="M278.42 338.331C278.784 338.761 279.038 339.282 279.161 339.832C279.243 340.2 279.267 340.583 279.222 340.957C279.169 341.389 279.024 341.809 278.805 342.185C278.063 343.462 276.422 344.142 274.996 343.759C273.569 343.375 272.488 341.961 272.498 340.484C272.506 339.123 273.43 337.813 274.709 337.348C275.989 336.882 277.538 337.293 278.42 338.331Z" fill="white"/>
<path d="M119.329 300.828C119.542 301.687 119.629 302.577 119.588 303.461C119.521 304.879 119.12 306.281 118.424 307.518C117.946 308.37 117.33 309.145 116.608 309.803C113.669 312.483 108.908 312.903 105.545 310.781C102.182 308.658 100.513 304.18 101.667 300.374C102.82 296.568 106.695 293.77 110.671 293.872C114.647 293.975 118.372 296.968 119.329 300.828Z" fill="white"/>
</svg>
