<svg width="973" height="515" viewBox="0 0 973 515" fill="none" xmlns="http://www.w3.org/2000/svg">
<path d="M340.191 275.797C350.808 270.598 362.892 269.201 374.713 269.11C392.944 268.97 411.64 271.922 427.425 281.046C445.965 291.761 459.494 311.312 461.555 332.627C463.617 353.941 453.532 376.343 435.429 387.782C416.64 399.655 391.568 398.773 371.627 388.958C351.685 379.143 336.474 361.467 325.801 341.97C315.129 322.474 308.561 301.047 302.063 279.792C286.863 230.065 271.663 180.338 256.462 130.611C245.294 156.474 234.126 182.337 222.957 208.2C222.582 209.068 222.161 209.991 221.353 210.482C220.329 211.103 219 210.838 217.903 210.359C213.221 208.311 210.716 202.929 210.575 197.821C210.434 192.712 212.211 187.767 213.969 182.969C228.758 142.604 243.991 102.402 259.665 62.373C282.899 137.778 306.14 213.207 326.352 289.478C332.778 313.728 339.28 338.852 354.851 358.522C370.422 378.193 397.844 390.909 421.131 381.577C437.226 375.127 448.512 358.686 449.808 341.395C450.547 331.527 448.267 321.453 443.35 312.865C433.593 295.822 414.329 285.888 394.911 282.958C375.493 280.027 355.707 283.187 336.434 286.951C334.077 286.082 333.411 282.802 334.524 280.55C335.637 278.298 337.935 276.902 340.191 275.797Z" fill="white"/>
<path d="M295.93 282.166C297.272 284.102 297.99 286.463 297.952 288.817C240.655 300.744 177.307 274.286 145.513 225.149C113.719 176.013 115.541 107.386 149.899 60.0065C184.257 12.6272 248.92 -10.4304 305.504 4.52124C334.824 12.2688 362.126 29.9785 377.927 55.8633C344.705 22.8538 290.167 13.4787 248.004 33.8637C205.841 54.2488 179.279 103.115 185.501 149.533C191.724 195.95 230.497 236.222 276.711 243.807C279.492 244.263 282.381 244.644 284.783 246.117C287.185 247.591 288.963 250.521 288.138 253.215C245.715 249.969 206.037 222.247 188.399 183.528C170.76 144.809 175.881 96.6777 201.273 62.5377C226.665 28.3976 271.288 9.64554 313.444 15.3995C273.161 1.09856 226.314 6.76938 190.606 30.2691C154.898 53.7689 131.159 94.5514 128.358 137.206C125.558 179.861 143.762 223.398 176.091 251.364C208.42 279.331 254.123 291.078 295.93 282.166Z" fill="white"/>
<path d="M409.689 181.51C398.719 222.737 368.787 257.779 331.443 278.405C330.114 279.139 328.36 278.226 327.646 276.886C326.932 275.546 326.973 273.947 327.033 272.43C356.672 257.276 382.071 232.74 395.048 202.085C377.836 226.343 351.558 244.005 322.597 250.782C321.691 250.994 320.959 250.069 320.489 249.266C319.87 248.208 319.234 247.098 319.16 245.874C319.086 244.651 319.767 243.287 320.962 243.014C345.858 237.345 368.661 222.891 384.413 202.796C400.165 182.701 408.756 157.107 408.317 131.577C408.287 129.842 408.233 128.029 408.99 126.467C415.59 143.911 414.485 163.486 409.689 181.51Z" fill="white"/>
<path d="M244.945 447.122C232.554 458.633 211.717 458.218 198.257 447.979C180.814 434.71 176.879 407.535 188.261 388.805C199.642 370.076 223.921 360.948 245.346 365.564C266.771 370.18 284.529 387.25 292.07 407.828C300.092 429.715 296.995 455.178 284.713 474.991C272.43 494.804 251.409 508.765 228.543 513.301C205.678 517.837 181.271 513.118 161.253 501.173C142.527 489.999 127.313 472.056 122.164 450.867C115.19 422.176 126.91 392.609 138.402 365.41C152.003 333.221 165.603 301.033 179.204 268.844C182.348 269.875 185.592 270.962 188.053 273.174C190.514 275.385 191.993 279.048 190.684 282.087C177.114 313.588 163.543 345.088 149.973 376.589C144.464 389.377 138.911 402.308 136.484 416.02C134.057 429.732 135.01 444.503 141.925 456.59C138.355 433.148 141.462 408.547 151.896 387.255C162.33 365.962 180.235 348.191 202.111 339.044C203.771 338.35 205.671 337.705 207.317 338.432C208.962 339.159 209.537 341.944 207.884 342.655C192.781 349.153 180.363 361.079 171.741 375.079C163.119 389.078 158.122 405.084 155.472 421.311C152.571 439.076 152.597 458.135 160.937 474.088C169.777 490.997 187.706 502.55 206.681 504.553C225.656 506.557 245.204 499.299 258.963 486.08C272.723 472.861 280.691 454.049 281.609 434.991C282.154 423.683 280.182 411.924 273.901 402.505C266.7 391.707 254.375 384.983 241.597 382.705C227.793 380.244 212.097 383.265 203.054 393.981C193.338 405.495 194.157 424.027 203.828 435.578C213.5 447.13 230.49 451.368 244.945 447.122Z" fill="white"/>
<path d="M135.052 340.013C136.377 339.516 138.248 339.265 138.865 340.538C139.112 341.049 139.045 341.648 138.973 342.211C138.557 345.447 138.06 348.878 135.959 351.375C134.631 352.953 132.785 353.997 130.94 354.919C115.173 362.799 95.7719 363.973 79.9015 356.303C64.0312 348.634 52.5883 331.662 53.2033 314.047C53.3932 308.608 54.6548 303.251 56.4005 298.097C62.6272 279.713 75.425 263.438 92.3708 253.974C112.873 242.522 139.031 241.785 160.072 252.215C162.261 253.3 164.454 254.546 165.974 256.459C167.495 258.373 168.21 261.104 167.164 263.313C166.117 265.521 162.975 266.659 161.046 265.159C148.73 255.585 131.957 252.53 116.693 255.75C101.43 258.97 87.7336 268.094 77.6837 280.025C71.5906 287.258 66.6699 295.715 64.8992 305.005C64.2637 308.34 64.0396 311.742 64.0274 315.136C64.0091 320.255 64.5033 325.5 66.6845 330.131C68.243 333.44 70.6127 336.317 73.2837 338.816C84.1214 348.955 100.461 352.81 114.688 348.584C121.753 346.485 128.152 342.603 135.052 340.013Z" fill="white"/>
<path d="M174.312 339.662C175.06 337.389 175.887 335.087 177.37 333.21C179.179 330.92 181.808 329.452 184.39 328.093C217.828 310.502 255.041 301.571 291.941 293.451C293.386 293.133 294.907 292.817 296.326 293.238C298.213 293.797 299.586 295.749 299.474 297.714C299.362 299.678 297.775 301.462 295.837 301.802C251.457 309.597 206.981 323.676 171.801 351.83C171.273 352.076 171.029 351.162 171.169 350.597C172.078 346.914 173.126 343.266 174.312 339.662Z" fill="white"/>
<path d="M244.047 263.851C228.867 262.633 214.883 255.227 202.207 246.786C195.095 242.049 188.211 236.918 182.089 230.957C164.923 214.242 154.375 191.356 150.667 167.685C146.959 144.014 149.825 119.599 156.816 96.6814C157.091 95.7789 157.443 94.7902 158.275 94.3451C159.107 93.9 160.446 94.5593 160.203 95.4711C153.58 120.327 151.948 146.756 157.603 171.85C163.258 196.944 176.472 220.613 196.281 237.023C210.846 249.089 228.774 257.051 247.492 259.766C248.866 259.965 249.051 262.124 248.013 263.047C246.976 263.97 245.431 263.963 244.047 263.851Z" fill="white"/>
<path d="M390.27 115.277C387.148 117.276 383.157 116.99 379.45 116.973C374.684 116.951 369.915 117.495 365.276 118.589C363.067 119.11 360.864 119.765 358.888 120.882C354.668 123.268 351.818 127.608 350.322 132.219C348.827 136.83 348.549 141.74 348.444 146.587C348.352 150.904 348.338 155.427 346.294 159.232C346.59 151.375 346.08 143.489 344.775 135.736C344.318 133.023 343.749 130.282 342.461 127.852C339.403 122.081 332.801 119.029 326.361 117.942C319.921 116.854 313.313 117.327 306.831 116.532C305.958 116.425 304.854 116.044 304.859 115.164C308.594 115.015 312.329 114.866 316.064 114.717C320.679 114.534 325.341 114.343 329.797 113.129C334.253 111.916 338.552 109.572 341.261 105.831C343.975 102.085 344.851 97.342 345.407 92.75C346.21 86.1217 346.497 79.431 346.265 72.7583C348.441 75.2045 348.115 78.8848 348.083 82.1582C348.047 85.9355 348.576 89.6934 349.142 93.4281C349.771 97.5745 350.501 101.856 352.823 105.349C355.383 109.199 359.643 111.662 364.085 112.948C368.526 114.234 373.195 114.462 377.813 114.682C381.965 114.88 386.118 115.079 390.27 115.277Z" fill="white"/>
<path d="M396.863 321.077C399.523 325.08 398.741 331.087 394.964 334.061C391.286 336.957 385.358 336.383 382.304 332.834C379.25 329.286 379.565 323.339 382.977 320.133C383.779 319.379 384.714 318.773 385.711 318.306C388.098 317.187 390.97 316.896 393.366 317.995C394.797 318.651 395.992 319.766 396.863 321.077Z" fill="white"/>
<path d="M312.052 80.4512C312.818 79.9075 313.875 79.9306 314.75 80.2736C315.624 80.6165 316.358 81.2352 317.073 81.8433C320.19 84.4901 323.306 87.1368 326.422 89.7835C327.178 90.4254 327.948 91.0837 328.454 91.9361C328.961 92.7884 329.165 93.8857 328.729 94.7762C328.001 96.2651 325.875 96.4806 324.353 95.8238C323.268 95.356 322.351 94.5792 321.457 93.8081C318.797 91.514 316.181 89.1691 313.611 86.7749C312.695 85.9217 311.757 85.0217 311.303 83.8549C310.85 82.688 311.032 81.1756 312.052 80.4512Z" fill="white"/>
<path d="M382.915 80.4238C382.149 79.8802 381.092 79.9033 380.218 80.2462C379.343 80.5892 378.61 81.2079 377.894 81.816C374.778 84.4627 371.661 87.1095 368.545 89.7562C367.789 90.3981 367.02 91.0563 366.513 91.9087C366.006 92.7611 365.802 93.8583 366.238 94.7489C366.967 96.2377 369.093 96.4533 370.615 95.7965C371.699 95.3286 372.616 94.5519 373.51 93.7807C376.17 91.4867 378.787 89.1417 381.357 86.7475C382.273 85.8944 383.211 84.9943 383.664 83.8275C384.117 82.6607 383.936 81.1483 382.915 80.4238Z" fill="white"/>
<path d="M311.983 145.725C312.749 146.268 313.806 146.245 314.68 145.902C315.555 145.559 316.288 144.941 317.004 144.332C320.12 141.686 323.237 139.039 326.353 136.392C327.109 135.75 327.879 135.092 328.385 134.24C328.892 133.387 329.096 132.29 328.66 131.4C327.931 129.911 325.805 129.695 324.283 130.352C323.199 130.82 322.282 131.597 321.388 132.368C318.728 134.662 316.112 137.007 313.541 139.401C312.625 140.254 311.687 141.154 311.234 142.321C310.781 143.488 310.962 145 311.983 145.725Z" fill="white"/>
<path d="M382.846 145.752C382.08 146.296 381.023 146.273 380.149 145.93C379.274 145.587 378.541 144.968 377.825 144.36C374.708 141.713 371.592 139.066 368.476 136.42C367.72 135.778 366.95 135.119 366.444 134.267C365.937 133.415 365.733 132.317 366.169 131.427C366.898 129.938 369.024 129.723 370.546 130.379C371.63 130.847 372.547 131.624 373.441 132.395C376.101 134.689 378.717 137.034 381.287 139.428C382.203 140.281 383.142 141.181 383.595 142.348C384.048 143.515 383.867 145.027 382.846 145.752Z" fill="white"/>
<path d="M360.682 448.718C358.865 451.254 355.028 452.066 352.339 450.483C349.651 448.9 348.499 445.151 349.834 442.331C351.17 439.512 354.801 438.029 357.728 439.106C359.213 439.653 360.318 440.92 361.152 442.265C361.852 443.393 362.421 444.771 361.979 446.023C361.646 446.966 361.265 447.905 360.682 448.718Z" fill="white"/>
<path d="M87.8818 217.317C87.4689 216.784 87.119 216.199 86.8751 215.57C86.4884 214.574 86.3756 213.486 86.4393 212.419C86.6111 209.544 88.1379 206.743 90.5601 205.185C92.9823 203.627 96.2605 203.423 98.7797 204.818C99.442 205.185 100.048 205.652 100.58 206.19C102.736 208.37 103.556 211.776 102.628 214.698C101.7 217.62 99.065 219.928 96.0465 220.465C93.0281 221.001 89.7592 219.74 87.8818 217.317Z" fill="white"/>
<path d="M192.756 134.332C190.743 130.89 191.159 126.194 193.747 123.161C196.39 120.063 201.104 118.942 204.858 120.518C208.612 122.094 211.113 126.244 210.753 130.299C210.393 134.355 207.201 137.999 203.228 138.889C199.254 139.78 194.812 137.846 192.756 134.332Z" fill="white"/>
<path d="M423.325 236.235C421.503 237.261 419.051 236.543 417.659 234.983C416.573 233.767 416.023 231.969 416.628 230.456C416.873 229.845 417.288 229.311 417.782 228.876C419.782 227.117 423.148 227.219 425.037 229.097C426.058 230.111 426.64 231.669 426.175 233.03C425.917 233.789 425.371 234.412 424.815 234.99C424.364 235.458 423.891 235.916 423.325 236.235Z" fill="white"/>
<path d="M278.42 338.331C278.784 338.761 279.038 339.282 279.161 339.832C279.243 340.2 279.267 340.583 279.222 340.957C279.169 341.389 279.024 341.809 278.805 342.185C278.063 343.462 276.422 344.142 274.996 343.759C273.569 343.375 272.488 341.961 272.498 340.484C272.506 339.123 273.43 337.813 274.709 337.348C275.989 336.882 277.538 337.293 278.42 338.331Z" fill="white"/>
<path d="M119.329 300.828C119.542 301.687 119.629 302.577 119.588 303.461C119.521 304.879 119.12 306.281 118.424 307.518C117.946 308.37 117.33 309.145 116.608 309.803C113.669 312.483 108.908 312.903 105.545 310.781C102.182 308.658 100.513 304.18 101.667 300.374C102.82 296.568 106.695 293.77 110.671 293.872C114.647 293.975 118.372 296.968 119.329 300.828Z" fill="white"/>
<path d="M549.2 379.8C549.333 378.333 549.817 376.883 550.65 375.45C551.517 374.017 552.467 372.883 553.5 372.05C556.4 373.983 559.617 375.6 563.15 376.9C566.683 378.2 570.15 378.85 573.55 378.85C577.75 378.85 581.017 377.95 583.35 376.15C585.717 374.35 586.9 372 586.9 369.1C586.9 366.6 586.05 364.433 584.35 362.6C582.683 360.733 580.383 359.167 577.45 357.9L565.35 352.85C561.15 351.083 557.817 348.817 555.35 346.05C552.883 343.283 551.65 339.8 551.65 335.6C551.65 332.033 552.583 328.8 554.45 325.9C556.35 323 558.983 320.7 562.35 319C565.717 317.267 569.617 316.4 574.05 316.4C578.15 316.4 582 316.933 585.6 318C589.233 319.067 592.35 320.233 594.95 321.5C594.917 322.933 594.567 324.383 593.9 325.85C593.233 327.283 592.367 328.467 591.3 329.4C588.667 328.1 585.8 327 582.7 326.1C579.633 325.167 576.833 324.7 574.3 324.7C570.467 324.7 567.433 325.65 565.2 327.55C562.967 329.417 561.85 331.733 561.85 334.5C561.85 336.833 562.65 338.717 564.25 340.15C565.883 341.583 567.95 342.833 570.45 343.9L582.35 348.85C586.55 350.583 590.083 352.983 592.95 356.05C595.85 359.083 597.3 362.867 597.3 367.4C597.3 371.2 596.417 374.6 594.65 377.6C592.883 380.6 590.2 382.967 586.6 384.7C583 386.433 578.467 387.3 573 387.3C568.867 387.3 564.683 386.633 560.45 385.3C556.25 383.933 552.5 382.1 549.2 379.8ZM618.666 345.5C618.666 344.433 618.683 343.467 618.716 342.6C618.75 341.7 618.766 340.683 618.766 339.55C618.133 339.55 617.25 339.567 616.116 339.6C615.016 339.633 614.15 339.65 613.516 339.65H602.866C602.733 338.95 602.633 338.25 602.566 337.55C602.5 336.85 602.466 336.217 602.466 335.65C602.466 335.05 602.5 334.383 602.566 333.65C602.633 332.917 602.733 332.2 602.866 331.5H644.016C644.183 332.067 644.316 332.717 644.416 333.45C644.516 334.15 644.566 334.75 644.566 335.25C644.566 336.683 644.183 337.783 643.416 338.55C642.683 339.283 641.3 339.65 639.266 339.65H633.566C632.966 339.65 632.1 339.633 630.966 339.6C629.866 339.567 629.016 339.55 628.416 339.55C628.416 340.683 628.433 341.7 628.466 342.6C628.5 343.467 628.516 344.433 628.516 345.5V386C627.883 386.133 627.1 386.233 626.166 386.3C625.233 386.367 624.383 386.4 623.616 386.4C622.883 386.4 622.05 386.367 621.116 386.3C620.183 386.233 619.366 386.133 618.666 386V345.5ZM660.643 373.6C660.276 373.6 659.443 373.583 658.143 373.55C656.876 373.517 655.86 373.5 655.093 373.5L650.593 386.05C649.426 386.35 648.026 386.5 646.393 386.5C644.46 386.5 642.926 386.267 641.793 385.8L641.493 385.3L661.443 331.5C662.243 331.367 663.21 331.267 664.343 331.2C665.476 331.1 666.46 331.05 667.293 331.05C668.06 331.05 668.96 331.1 669.993 331.2C671.06 331.267 671.993 331.367 672.793 331.5L692.643 385.55C691.876 385.917 690.96 386.2 689.893 386.4C688.86 386.6 687.893 386.7 686.993 386.7C685.626 386.7 684.476 386.417 683.543 385.85C682.643 385.283 681.86 384.033 681.193 382.1L678.143 373.5C677.476 373.5 676.526 373.517 675.293 373.55C674.093 373.583 673.293 373.6 672.893 373.6H660.643ZM662.343 353.15L657.893 365.55C658.626 365.55 659.493 365.533 660.493 365.5C661.526 365.467 662.21 365.45 662.543 365.45H671.243C671.576 365.45 672.176 365.467 673.043 365.5C673.91 365.533 674.676 365.55 675.343 365.55L671.693 355.25C670.96 353.117 670.126 350.567 669.193 347.6C668.293 344.633 667.51 342.033 666.843 339.8H666.393C665.793 341.933 665.11 344.283 664.343 346.85C663.576 349.383 662.91 351.483 662.343 353.15ZM742.947 347.4C742.947 350.967 741.797 354.05 739.497 356.65C737.197 359.217 734.464 360.883 731.297 361.65C732.93 362.283 734.247 363.167 735.247 364.3C736.247 365.433 737.114 366.817 737.847 368.45L741.747 377.2C742.347 378.5 742.964 379.717 743.597 380.85C744.264 381.983 744.964 382.9 745.697 383.6C745.064 384.5 744.13 385.233 742.897 385.8C741.697 386.367 740.447 386.65 739.147 386.65C737.48 386.65 736.197 386.217 735.297 385.35C734.397 384.483 733.58 383.183 732.847 381.45L727.897 370.2C727.064 368.267 726.014 366.817 724.747 365.85C723.514 364.883 721.614 364.4 719.047 364.4H712.397V386C711.63 386.133 710.814 386.233 709.947 386.3C709.08 386.367 708.264 386.4 707.497 386.4C706.797 386.4 705.98 386.367 705.047 386.3C704.147 386.233 703.33 386.133 702.597 386V332L703.147 331.5C706.614 331.4 709.897 331.317 712.997 331.25C716.097 331.183 719.247 331.15 722.447 331.15C728.647 331.15 733.614 332.517 737.347 335.25C741.08 337.95 742.947 342 742.947 347.4ZM712.397 338.6V356.7C714.164 356.667 715.897 356.633 717.597 356.6C719.297 356.567 720.714 356.55 721.847 356.55C724.714 356.55 726.93 356.1 728.497 355.2C730.064 354.267 731.147 353.1 731.747 351.7C732.38 350.3 732.697 348.917 732.697 347.55C732.697 346.117 732.38 344.733 731.747 343.4C731.147 342.033 730.08 340.917 728.547 340.05C727.014 339.15 724.864 338.7 722.097 338.7C720.73 338.7 719.147 338.7 717.347 338.7C715.547 338.7 713.897 338.667 712.397 338.6ZM796.441 349C796.441 354.933 794.491 359.383 790.591 362.35C786.725 365.283 781.758 366.75 775.691 366.75H766.841V386C766.108 386.133 765.291 386.233 764.391 386.3C763.525 386.367 762.708 386.4 761.941 386.4C761.241 386.4 760.425 386.367 759.491 386.3C758.558 386.233 757.725 386.133 756.991 386V332L757.541 331.5C760.575 331.433 763.575 331.367 766.541 331.3C769.541 331.2 772.591 331.15 775.691 331.15C779.691 331.15 783.241 331.783 786.341 333.05C789.475 334.317 791.941 336.267 793.741 338.9C795.541 341.533 796.441 344.9 796.441 349ZM766.841 338.75V359.15C768.408 359.117 770.008 359.1 771.641 359.1C773.275 359.1 774.508 359.1 775.341 359.1C778.308 359.1 780.575 358.567 782.141 357.5C783.708 356.433 784.775 355.117 785.341 353.55C785.908 351.983 786.191 350.45 786.191 348.95C786.191 347.417 785.908 345.883 785.341 344.35C784.775 342.783 783.708 341.483 782.141 340.45C780.575 339.383 778.308 338.85 775.341 338.85C774.075 338.85 772.708 338.85 771.241 338.85C769.808 338.817 768.341 338.783 766.841 338.75ZM814.745 373.6C814.378 373.6 813.545 373.583 812.245 373.55C810.978 373.517 809.961 373.5 809.195 373.5L804.695 386.05C803.528 386.35 802.128 386.5 800.495 386.5C798.561 386.5 797.028 386.267 795.895 385.8L795.595 385.3L815.545 331.5C816.345 331.367 817.311 331.267 818.445 331.2C819.578 331.1 820.561 331.05 821.395 331.05C822.161 331.05 823.061 331.1 824.095 331.2C825.161 331.267 826.095 331.367 826.895 331.5L846.745 385.55C845.978 385.917 845.061 386.2 843.995 386.4C842.961 386.6 841.995 386.7 841.095 386.7C839.728 386.7 838.578 386.417 837.645 385.85C836.745 385.283 835.961 384.033 835.295 382.1L832.245 373.5C831.578 373.5 830.628 373.517 829.395 373.55C828.195 373.583 827.395 373.6 826.995 373.6H814.745ZM816.445 353.15L811.995 365.55C812.728 365.55 813.595 365.533 814.595 365.5C815.628 365.467 816.311 365.45 816.645 365.45H825.345C825.678 365.45 826.278 365.467 827.145 365.5C828.011 365.533 828.778 365.55 829.445 365.55L825.795 355.25C825.061 353.117 824.228 350.567 823.295 347.6C822.395 344.633 821.611 342.033 820.945 339.8H820.495C819.895 341.933 819.211 344.283 818.445 346.85C817.678 349.383 817.011 351.483 816.445 353.15ZM860.268 345.5C860.268 344.433 860.285 343.467 860.318 342.6C860.351 341.7 860.368 340.683 860.368 339.55C859.735 339.55 858.851 339.567 857.718 339.6C856.618 339.633 855.751 339.65 855.118 339.65H844.468C844.335 338.95 844.235 338.25 844.168 337.55C844.101 336.85 844.068 336.217 844.068 335.65C844.068 335.05 844.101 334.383 844.168 333.65C844.235 332.917 844.335 332.2 844.468 331.5H885.618C885.785 332.067 885.918 332.717 886.018 333.45C886.118 334.15 886.168 334.75 886.168 335.25C886.168 336.683 885.785 337.783 885.018 338.55C884.285 339.283 882.901 339.65 880.868 339.65H875.168C874.568 339.65 873.701 339.633 872.568 339.6C871.468 339.567 870.618 339.55 870.018 339.55C870.018 340.683 870.035 341.7 870.068 342.6C870.101 343.467 870.118 344.433 870.118 345.5V386C869.485 386.133 868.701 386.233 867.768 386.3C866.835 386.367 865.985 386.4 865.218 386.4C864.485 386.4 863.651 386.367 862.718 386.3C861.785 386.233 860.968 386.133 860.268 386V345.5ZM905.025 386C904.292 386.133 903.475 386.233 902.575 386.3C901.708 386.367 900.892 386.4 900.125 386.4C899.425 386.4 898.608 386.367 897.675 386.3C896.742 386.233 895.908 386.133 895.175 386V331.5C895.908 331.333 896.742 331.233 897.675 331.2C898.608 331.133 899.425 331.1 900.125 331.1C900.892 331.1 901.708 331.133 902.575 331.2C903.475 331.233 904.292 331.333 905.025 331.5V347.75C905.025 348.883 905.008 349.883 904.975 350.75C904.942 351.617 904.925 352.583 904.925 353.65C905.392 353.65 906.242 353.633 907.475 353.6C908.742 353.567 909.592 353.55 910.025 353.55H924.575C924.975 353.55 925.792 353.567 927.025 353.6C928.292 353.633 929.158 353.65 929.625 353.65C929.625 352.583 929.608 351.617 929.575 350.75C929.542 349.883 929.525 348.883 929.525 347.75V331.5C930.225 331.333 931.008 331.233 931.875 331.2C932.742 331.133 933.558 331.1 934.325 331.1C935.058 331.1 935.892 331.133 936.825 331.2C937.758 331.233 938.608 331.333 939.375 331.5V386C938.608 386.133 937.775 386.233 936.875 386.3C936.008 386.367 935.175 386.4 934.375 386.4C933.608 386.4 932.792 386.367 931.925 386.3C931.058 386.233 930.258 386.133 929.525 386V367.65C929.525 366.483 929.542 365.467 929.575 364.6C929.608 363.733 929.625 362.75 929.625 361.65C929.158 361.65 928.292 361.667 927.025 361.7C925.792 361.733 924.975 361.75 924.575 361.75H910.025C909.592 361.75 908.742 361.733 907.475 361.7C906.242 361.667 905.392 361.65 904.925 361.65C904.925 362.75 904.942 363.733 904.975 364.6C905.008 365.467 905.025 366.483 905.025 367.65V386Z" fill="white"/>
<path d="M533.68 150.36C529.04 167.16 525.36 181.16 522.64 192.36C520.08 203.4 517.2 216.28 514 231C510.96 245.56 509.44 257.24 509.44 266.04C509.44 274.84 511.44 279.24 515.44 279.24C519.76 279.24 525.68 273.72 533.2 262.68C540.88 251.64 547.44 240.6 552.88 229.56L560.8 213H567.28C566.32 214.92 565.04 217.56 563.44 220.92C562 224.12 559.04 229.96 554.56 238.44C550.08 246.76 545.76 254.12 541.6 260.52C537.6 266.92 533.04 272.76 527.92 278.04C522.8 283.16 518.4 285.72 514.72 285.72C503.2 285.72 497.44 277.24 497.44 260.28C497.44 254.04 498.32 245.88 500.08 235.8H498.16C480.4 268.76 466 285.24 454.96 285.24C442.32 285.24 436 275.72 436 256.68C436 245.64 438.88 233.56 444.64 220.44C452.64 202.68 462.8 191.08 475.12 185.64C479.44 183.88 483.76 183 488.08 183C492.56 183 496.08 184.28 498.64 186.84C501.2 189.4 502.48 192.28 502.48 195.48C502.48 196.92 501.68 197.64 500.08 197.64C498.64 197.48 497.92 196.68 497.92 195.24C497.92 193.8 497.12 192.52 495.52 191.4C494.08 190.12 491.92 189.48 489.04 189.48C478.96 189.48 469.84 198.52 461.68 216.6C454 233.4 450.16 249.32 450.16 264.36C450.16 273.64 452.16 278.28 456.16 278.28C461.6 278.28 468.4 272.36 476.56 260.52C484.72 248.68 491.84 235.96 497.92 222.36C504.16 208.76 508.56 196.36 511.12 185.16C513.84 173.8 517.92 158.36 523.36 138.84C526.88 126.2 531.52 119.88 537.28 119.88C538.56 119.88 539.52 120.36 540.16 121.32C540.8 122.12 541.04 123 540.88 123.96C540.72 124.76 538.32 133.56 533.68 150.36Z" fill="white"/>
<path d="M673.72 285.24C661.08 285.24 654.76 275.72 654.76 256.68C654.76 245.64 657.64 233.56 663.4 220.44C671.4 202.68 681.56 191.08 693.88 185.64C698.2 183.88 702.52 183 706.84 183C711.32 183 714.84 184.28 717.4 186.84C719.96 189.4 721.24 192.28 721.24 195.48C721.24 196.92 720.44 197.64 718.84 197.64C717.4 197.48 716.68 196.68 716.68 195.24C716.68 193.8 715.88 192.52 714.28 191.4C712.84 190.12 710.68 189.48 707.8 189.48C697.72 189.48 688.6 198.52 680.44 216.6C672.76 233.4 668.92 249.32 668.92 264.36C668.92 273.64 670.92 278.28 674.92 278.28C679.08 278.28 684.04 274.84 689.8 267.96C695.72 260.92 701.16 252.76 706.12 243.48C716.84 223.96 723.16 211.4 725.08 205.8C727 200.2 729.08 197.4 731.32 197.4C735.32 197.4 737.32 200.76 737.32 207.48C737.32 209.56 737.08 211.96 736.6 214.68C731.32 240.28 728.44 255.08 727.96 259.08C727.64 263.08 727.48 265.96 727.48 267.72C727.48 275.4 729.32 279.24 733 279.24C737.16 279.24 743 273.72 750.52 262.68C758.04 251.64 764.52 240.6 769.96 229.56L778.12 213H784.6C783.64 214.92 782.36 217.56 780.76 220.92C779.32 224.12 776.36 229.96 771.88 238.44C767.4 246.76 763.08 254.12 758.92 260.52C754.92 266.92 750.36 272.76 745.24 278.04C740.28 283.16 735.96 285.72 732.28 285.72C720.44 285.72 714.52 277.08 714.52 259.8C714.52 254.04 715.16 247.32 716.44 239.64H714.76C698.44 270.04 684.76 285.24 673.72 285.24ZM774.382 285C769.902 285 767.662 281.56 767.662 274.68C767.662 271 772.142 244.2 781.102 194.28C781.742 190.92 783.182 189.24 785.422 189.24C788.302 189.24 790.462 191.32 791.902 195.48C792.702 197.72 793.102 200.2 793.102 202.92C793.102 205.48 792.782 208.28 792.142 211.32L788.302 231H789.502C803.262 199 815.902 183 827.422 183C833.822 183 838.062 186.12 840.142 192.36C840.942 194.76 841.342 197.56 841.342 200.76C841.342 203.8 840.462 207.16 838.702 210.84C835.662 217.08 831.102 220.2 825.022 220.2C823.742 220.2 822.702 219.88 821.902 219.24C821.262 218.6 820.862 217.72 820.702 216.6C821.982 216.6 823.662 214.28 825.742 209.64C827.822 204.84 829.022 200.44 829.342 196.44C829.662 192.44 828.302 190.12 825.262 189.48C819.662 189.48 813.022 196.76 805.342 211.32C797.662 225.88 791.502 239.8 786.862 253.08C782.222 266.36 779.502 275 778.702 279C777.902 283 776.462 285 774.382 285ZM861.806 285.24C849.166 285.24 842.846 275.72 842.846 256.68C842.846 245.64 845.726 233.56 851.486 220.44C859.486 202.68 869.646 191.08 881.966 185.64C886.286 183.88 890.606 183 894.926 183C899.406 183 902.926 184.28 905.486 186.84C908.046 189.4 909.326 192.28 909.326 195.48C909.326 196.92 908.526 197.64 906.926 197.64C905.486 197.48 904.766 196.68 904.766 195.24C904.766 193.8 903.966 192.52 902.366 191.4C900.926 190.12 898.766 189.48 895.886 189.48C885.806 189.48 876.686 198.52 868.526 216.6C860.846 233.4 857.006 249.32 857.006 264.36C857.006 273.64 859.006 278.28 863.006 278.28C867.166 278.28 872.126 274.84 877.886 267.96C883.806 260.92 889.246 252.76 894.206 243.48C904.926 223.96 911.246 211.4 913.166 205.8C915.086 200.2 917.166 197.4 919.406 197.4C923.406 197.4 925.406 200.76 925.406 207.48C925.406 209.56 925.166 211.96 924.686 214.68C919.406 240.28 916.526 255.08 916.046 259.08C915.726 263.08 915.566 265.96 915.566 267.72C915.566 275.4 917.406 279.24 921.086 279.24C925.246 279.24 931.086 273.72 938.606 262.68C946.126 251.64 952.606 240.6 958.046 229.56L966.206 213H972.686C971.726 214.92 970.446 217.56 968.846 220.92C967.406 224.12 964.446 229.96 959.966 238.44C955.486 246.76 951.166 254.12 947.006 260.52C943.006 266.92 938.446 272.76 933.326 278.04C928.366 283.16 924.046 285.72 920.366 285.72C908.526 285.72 902.606 277.08 902.606 259.8C902.606 254.04 903.246 247.32 904.526 239.64H902.846C886.526 270.04 872.846 285.24 861.806 285.24Z" fill="white"/>
<path d="M550.75 285C549.845 285 549.393 284.568 549.393 283.703C548.79 275.635 550.599 260.074 554.821 237.021C556.932 225.494 558.892 215.84 560.702 208.06C562.813 199.991 564.622 193.94 566.13 189.906C556.781 191.923 551.805 195.525 551.202 200.712C550.599 204.17 549.543 205.899 548.036 205.899C546.226 205.899 545.623 204.17 546.226 200.712C546.528 192.643 554.218 186.448 569.296 182.125C573.217 169.734 577.891 157.631 583.319 145.816C589.049 134.002 595.382 122.475 602.318 111.237C618.603 85.8782 635.793 66.5712 653.887 53.3156C672.283 39.7719 690.98 33 709.979 33C734.406 33 750.691 42.7976 758.833 62.3928C760.944 67.2916 762 72.6226 762 78.3859C762 95.0995 753.405 109.652 736.216 122.043C710.582 141.062 659.164 162.242 581.962 185.583C577.74 196.533 572.614 219.587 566.582 254.743L604.128 207.196C604.731 203.738 606.842 199.991 610.461 195.957C614.381 191.635 617.548 189.473 619.96 189.473C622.071 189.473 623.127 191.058 623.127 194.228C623.127 194.804 623.127 195.525 623.127 196.389C623.127 197.254 622.976 198.118 622.674 198.983C619.055 222.324 617.246 237.885 617.246 245.666C617.246 264.108 620.714 273.329 627.65 273.329C635.491 273.329 646.197 265.693 659.768 250.42L669.267 239.182C670.172 238.317 670.926 239.182 671.529 241.775C669.116 246.962 662.934 254.455 652.982 264.252C639.412 277.796 627.801 284.568 618.151 284.568C614.834 284.568 612.119 283.991 610.008 282.839C602.771 279.381 599.152 267.71 599.152 247.827C599.152 242.64 599.303 237.741 599.604 233.13C600.207 228.52 600.81 224.197 601.414 220.163C594.176 228.232 582.264 242.208 565.677 262.091C565.074 268.719 562.963 274.194 559.345 278.516C556.027 282.839 553.162 285 550.75 285ZM583.772 178.235C604.882 172.472 630.666 162.818 661.125 149.274C694.297 134.578 718.574 121.611 733.954 110.372C749.032 99.1338 756.572 87.6072 756.572 75.7925C756.572 72.6227 755.969 69.741 754.762 67.1475C748.731 52.7393 734.255 45.5352 711.336 45.5352C705.003 45.5352 699.424 46.1115 694.599 47.2641C662.632 52.7393 637.301 70.3173 618.603 99.9983C615.286 104.897 610.762 113.83 605.032 126.798C599.303 140.053 592.216 157.199 583.772 178.235Z" fill="white"/>
</svg>
