<svg width="92" height="43" viewBox="0 0 92 43" fill="none" xmlns="http://www.w3.org/2000/svg">
<path d="M8.76598 4.50325C8.98155 6.64235 7.42172 8.5504 5.28263 8.76597C3.14353 8.98154 1.23547 7.42281 1.01991 5.28372C0.804339 3.14462 2.36417 1.23546 4.50326 1.01989C6.64236 0.804324 8.55042 2.36415 8.76598 4.50325Z" stroke="#231F20" stroke-width="1.33333" stroke-miterlimit="10"/>
<path d="M8.76598 37.2939C8.98155 39.433 7.42172 41.3411 5.28263 41.5566C3.14353 41.7722 1.23547 40.2135 1.01991 38.0744C0.804339 35.9353 2.36417 34.0261 4.50326 33.8105C6.64236 33.595 8.55042 35.1548 8.76598 37.2939Z" stroke="#231F20" stroke-width="1.33333" stroke-miterlimit="10"/>
<path d="M40.8377 37.2939C41.0533 39.433 39.4934 41.3411 37.3543 41.5566C35.2152 41.7722 33.3072 40.2135 33.0916 38.0744C32.8761 35.9353 34.4359 34.0261 36.575 33.8105C38.7141 33.595 40.6221 35.1548 40.8377 37.2939Z" stroke="#231F20" stroke-width="1.33333" stroke-miterlimit="10"/>
<path d="M40.8377 5.70381C41.0533 7.84291 39.4934 9.75096 37.3543 9.96653C35.2152 10.1821 33.3072 8.62338 33.0916 6.48428C32.8761 4.34518 34.4359 2.43602 36.575 2.22045C38.7141 2.00489 40.6221 3.56471 40.8377 5.70381Z" stroke="#231F20" stroke-width="1.33333" stroke-miterlimit="10"/>
<path d="M6.90259 7.7808L34.0918 35.0573" stroke="#231F20" stroke-width="1.33333" stroke-miterlimit="10"/>
<path d="M33.7616 7.82388L6.85977 34.6394" stroke="#231F20" stroke-width="1.33333" stroke-miterlimit="10"/>
<path d="M40.4883 7.82383L54.3178 21.6976" stroke="#231F20" stroke-width="1.33333" stroke-miterlimit="10"/>
<path d="M54.3175 21.6976L40.4493 35.5216" stroke="#231F20" stroke-width="1.33333" stroke-miterlimit="10"/>
<path d="M82.2912 21.6976H54.3171" stroke="#231F20" stroke-width="1.33333" stroke-miterlimit="10"/>
<path d="M61.35 30.5382V14.2512" stroke="#231F20" stroke-width="1.33333" stroke-miterlimit="10"/>
<path d="M66.7173 29.1502V15.6391" stroke="#231F20" stroke-width="1.33333" stroke-miterlimit="10"/>
<path d="M71.7144 27.1143V17.6758" stroke="#231F20" stroke-width="1.33333" stroke-miterlimit="10"/>
<path d="M91 27.8763C87.2635 29.247 82.5011 28.4986 82.5133 22.2173C82.5221 17.068 86.7561 15.3689 91 16.5584" stroke="#231F20" stroke-width="1.33333" stroke-miterlimit="10"/>
</svg>
