<svg width="93" height="45" viewBox="0 0 93 45" fill="none" xmlns="http://www.w3.org/2000/svg">
<path d="M9.76598 5.50328C9.98155 7.64238 8.42172 9.55043 6.28263 9.766C4.14353 9.98157 2.23547 8.42285 2.01991 6.28375C1.80434 4.14465 3.36417 2.23549 5.50326 2.01992C7.64236 1.80435 9.55042 3.36418 9.76598 5.50328Z" stroke="white" stroke-width="3" stroke-miterlimit="10"/>
<path d="M9.76598 38.2939C9.98155 40.433 8.42172 42.3411 6.28263 42.5566C4.14353 42.7722 2.23547 41.2135 2.01991 39.0744C1.80434 36.9353 3.36417 35.0261 5.50326 34.8106C7.64236 34.595 9.55042 36.1548 9.76598 38.2939Z" stroke="white" stroke-width="3" stroke-miterlimit="10"/>
<path d="M41.8377 38.2939C42.0533 40.433 40.4934 42.3411 38.3543 42.5566C36.2152 42.7722 34.3072 41.2135 34.0916 39.0744C33.876 36.9353 35.4359 35.0261 37.575 34.8106C39.7141 34.595 41.6221 36.1548 41.8377 38.2939Z" stroke="white" stroke-width="3" stroke-miterlimit="10"/>
<path d="M41.8377 6.70384C42.0533 8.84294 40.4934 10.751 38.3543 10.9666C36.2152 11.1821 34.3072 9.62341 34.0916 7.48431C33.876 5.34521 35.4359 3.43605 37.575 3.22048C39.7141 3.00492 41.6221 4.56474 41.8377 6.70384Z" stroke="white" stroke-width="3" stroke-miterlimit="10"/>
<path d="M7.90258 8.78083L35.0918 36.0574" stroke="white" stroke-width="3" stroke-miterlimit="10"/>
<path d="M34.7616 8.82391L7.85978 35.6395" stroke="white" stroke-width="3" stroke-miterlimit="10"/>
<path d="M41.4883 8.82389L55.3178 22.6976" stroke="white" stroke-width="3" stroke-miterlimit="10"/>
<path d="M55.3175 22.6976L41.4493 36.5216" stroke="white" stroke-width="3" stroke-miterlimit="10"/>
<path d="M83.2912 22.6976H55.3171" stroke="white" stroke-width="3" stroke-miterlimit="10"/>
<path d="M62.35 31.5383V15.2513" stroke="white" stroke-width="3" stroke-miterlimit="10"/>
<path d="M67.7173 30.1502V16.6391" stroke="white" stroke-width="3" stroke-miterlimit="10"/>
<path d="M72.7144 28.1143V18.6758" stroke="white" stroke-width="3" stroke-miterlimit="10"/>
<path d="M92 28.8763C88.2635 30.2471 83.5011 29.4987 83.5133 23.2173C83.5221 18.068 87.7561 16.3689 92 17.5584" stroke="white" stroke-width="3" stroke-miterlimit="10"/>
</svg>
